<?xml version="1.0" encoding="UTF-8" standalone="no"?>
<!-- Created with Inkscape (http://www.inkscape.org/) -->

<svg
   width="432"
   height="432"
   viewBox="0 0 114.3 114.3"
   version="1.1"
   id="svg1"
   inkscape:version="1.4.3 (0d15f75, 2025-12-25)"
   sodipodi:docname="App Icon.svg"
   inkscape:export-filename="App Icon.svg"
   inkscape:export-xdpi="96"
   inkscape:export-ydpi="96"
   xmlns:inkscape="http://www.inkscape.org/namespaces/inkscape"
   xmlns:sodipodi="http://sodipodi.sourceforge.net/DTD/sodipodi-0.dtd"
   xmlns="http://www.w3.org/2000/svg"
   xmlns:svg="http://www.w3.org/2000/svg">
  <sodipodi:namedview
     id="namedview1"
     pagecolor="#ffffff"
     bordercolor="#000000"
     borderopacity="0.25"
     inkscape:showpageshadow="2"
     inkscape:pageopacity="0.0"
     inkscape:pagecheckerboard="0"
     inkscape:deskcolor="#d1d1d1"
     inkscape:document-units="px"
     inkscape:zoom="2"
     inkscape:cx="179.25"
     inkscape:cy="132.25"
     inkscape:window-width="1920"
     inkscape:window-height="1080"
     inkscape:window-x="0"
     inkscape:window-y="0"
     inkscape:window-maximized="0"
     inkscape:current-layer="layer1" />
  <defs
     id="defs1" />
  <g
     inkscape:label="Ebene 1"
     inkscape:groupmode="layer"
     id="layer1">
    <path
       id="rect2"
       style="stroke-width:0.904794;fill:#d89216;fill-opacity:1"
       inkscape:label="Main"
       d="m 45.491797,33.3375 c -1.511598,0 -2.728516,1.382861 -2.728516,3.100586 v 6.201172 c 0,1.717724 1.216918,3.100586 2.728516,3.100586 1.511598,0 2.728515,-1.382862 2.728515,-3.100586 v -6.201172 c 0,-1.717725 -1.216917,-3.100586 -2.728515,-3.100586 z m 23.316406,0 c -1.511597,0 -2.728516,1.382861 -2.728516,3.100586 v 6.201172 c 0,1.717724 1.216919,3.100586 2.728516,3.100586 1.511598,0 2.728516,-1.382862 2.728516,-3.100586 v -6.201172 c 0,-1.717725 -1.216918,-3.100586 -2.728516,-3.100586 z m -31.875961,6.283854 c -1.991565,0 -3.594742,1.603177 -3.594742,3.594742 v 34.151662 c 0,1.991565 1.603177,3.594742 3.594742,3.594742 h 40.435516 c 1.991564,0 3.594742,-1.603177 3.594742,-3.594742 V 43.216096 c 0,-1.991565 -1.603178,-3.594742 -3.594742,-3.594742 h -4.177394 v 4.051432 c 0,2.06127 -1.659433,3.720703 -3.720703,3.720703 h -1.322916 c -2.061269,0 -3.720703,-1.659433 -3.720703,-3.720703 V 39.621354 H 49.873958 v 4.051432 c 0,2.06127 -1.659434,3.720703 -3.720703,3.720703 h -1.322916 c -2.06127,0 -3.720703,-1.659433 -3.720703,-3.720703 v -4.051432 z m 0.49351,9.921875 h 39.448496 c 0.432612,0 0.78096,0.348348 0.78096,0.78096 v 26.550059 c 0,0.432612 -0.348348,0.78096 -0.78096,0.78096 H 37.425752 c -0.432612,0 -0.78096,-0.348348 -0.78096,-0.78096 V 50.324189 c 0,-0.432612 0.348348,-0.78096 0.78096,-0.78096 z m 3.353154,4.960938 c -0.916119,0 -1.653645,0.737526 -1.653645,1.653645 v 4.134115 c 0,0.916119 0.737526,1.653646 1.653645,1.653646 h 6.945313 c 0.91612,0 1.653645,-0.737527 1.653645,-1.653646 v -4.134115 c 0,-0.916119 -0.737525,-1.653645 -1.653645,-1.653645 z m 12.733073,0 c -0.91612,0 -1.653646,0.737526 -1.653646,1.653645 v 4.134115 c 0,0.916119 0.737526,1.653646 1.653646,1.653646 h 6.945313 c 0.91612,0 1.653645,-0.737527 1.653645,-1.653646 v -4.134115 c 0,-0.916119 -0.737525,-1.653645 -1.653645,-1.653645 z m 12.733073,0 c -0.91612,0 -1.653646,0.737526 -1.653646,1.653645 v 4.134115 c 0,0.916119 0.737526,1.653646 1.653646,1.653646 h 6.945312 c 0.91612,0 1.653647,-0.737527 1.653647,-1.653646 v -4.134115 c 0,-0.916119 -0.737527,-1.653645 -1.653647,-1.653645 z M 40.778906,65.252864 c -0.916119,0 -1.653645,0.737527 -1.653645,1.653647 v 4.134114 c 0,0.916119 0.737526,1.653646 1.653645,1.653646 h 6.945313 c 0.91612,0 1.653645,-0.737527 1.653645,-1.653646 v -4.134114 c 0,-0.91612 -0.737525,-1.653647 -1.653645,-1.653647 z m 12.733073,0 c -0.91612,0 -1.653646,0.737527 -1.653646,1.653647 v 4.134114 c 0,0.916119 0.737526,1.653646 1.653646,1.653646 h 6.945313 c 0.91612,0 1.653645,-0.737527 1.653645,-1.653646 v -4.134114 c 0,-0.91612 -0.737525,-1.653647 -1.653645,-1.653647 z" />
  </g>
</svg>
